<mxfile host="app.diagrams.net" modified="2023-12-02T19:01:01.464Z" agent="Mozilla/5.0 (Macintosh; Intel Mac OS X 10_15_7) AppleWebKit/537.36 (KHTML, like Gecko) Chrome/119.0.0.0 Safari/537.36" etag="_rf8HnQQFebMUDrJg6tb" version="22.1.5" type="github">
  <diagram name="Sayfa -1" id="V7n21YVsoQ7L78F-luxI">
    <mxGraphModel dx="2074" dy="1043" grid="1" gridSize="10" guides="1" tooltips="1" connect="1" arrows="1" fold="1" page="1" pageScale="1" pageWidth="827" pageHeight="1169" background="none" math="0" shadow="0">
      <root>
        <mxCell id="0" />
        <mxCell id="1" parent="0" />
        <mxCell id="WUpW_kpJdlC3aX1pUKKl-19" style="edgeStyle=orthogonalEdgeStyle;rounded=0;orthogonalLoop=1;jettySize=auto;html=1;" edge="1" parent="1" source="WUpW_kpJdlC3aX1pUKKl-2" target="WUpW_kpJdlC3aX1pUKKl-6">
          <mxGeometry relative="1" as="geometry" />
        </mxCell>
        <mxCell id="WUpW_kpJdlC3aX1pUKKl-2" value="Local to Global&lt;br&gt;Space Transform" style="rounded=1;whiteSpace=wrap;html=1;" vertex="1" parent="1">
          <mxGeometry x="373" y="50" width="120" height="60" as="geometry" />
        </mxCell>
        <mxCell id="WUpW_kpJdlC3aX1pUKKl-11" style="edgeStyle=orthogonalEdgeStyle;rounded=1;orthogonalLoop=1;jettySize=auto;html=1;" edge="1" parent="1" source="WUpW_kpJdlC3aX1pUKKl-6" target="WUpW_kpJdlC3aX1pUKKl-10">
          <mxGeometry relative="1" as="geometry">
            <mxPoint x="669" y="80" as="targetPoint" />
          </mxGeometry>
        </mxCell>
        <mxCell id="WUpW_kpJdlC3aX1pUKKl-6" value="Global to Clip&lt;br&gt;Space Transform" style="rounded=1;whiteSpace=wrap;html=1;" vertex="1" parent="1">
          <mxGeometry x="519" y="50" width="120" height="60" as="geometry" />
        </mxCell>
        <mxCell id="WUpW_kpJdlC3aX1pUKKl-9" style="edgeStyle=orthogonalEdgeStyle;rounded=1;orthogonalLoop=1;jettySize=auto;html=1;" edge="1" parent="1" source="WUpW_kpJdlC3aX1pUKKl-7" target="WUpW_kpJdlC3aX1pUKKl-2">
          <mxGeometry relative="1" as="geometry" />
        </mxCell>
        <mxCell id="WUpW_kpJdlC3aX1pUKKl-7" value="Local Transform" style="rounded=1;whiteSpace=wrap;html=1;" vertex="1" parent="1">
          <mxGeometry x="223" y="50" width="120" height="60" as="geometry" />
        </mxCell>
        <mxCell id="WUpW_kpJdlC3aX1pUKKl-10" value="Clip to Screen&lt;br&gt;Space Transform" style="rounded=1;whiteSpace=wrap;html=1;" vertex="1" parent="1">
          <mxGeometry x="659" y="50" width="120" height="60" as="geometry" />
        </mxCell>
        <mxCell id="WUpW_kpJdlC3aX1pUKKl-17" style="edgeStyle=orthogonalEdgeStyle;rounded=0;orthogonalLoop=1;jettySize=auto;html=1;entryX=0.5;entryY=1;entryDx=0;entryDy=0;" edge="1" parent="1" source="WUpW_kpJdlC3aX1pUKKl-12" target="WUpW_kpJdlC3aX1pUKKl-7">
          <mxGeometry relative="1" as="geometry" />
        </mxCell>
        <mxCell id="WUpW_kpJdlC3aX1pUKKl-12" value="Transform Matrix" style="rounded=1;whiteSpace=wrap;html=1;" vertex="1" parent="1">
          <mxGeometry x="223" y="160" width="120" height="60" as="geometry" />
        </mxCell>
        <mxCell id="WUpW_kpJdlC3aX1pUKKl-16" style="edgeStyle=orthogonalEdgeStyle;rounded=0;orthogonalLoop=1;jettySize=auto;html=1;entryX=0;entryY=0.5;entryDx=0;entryDy=0;" edge="1" parent="1" source="WUpW_kpJdlC3aX1pUKKl-15" target="WUpW_kpJdlC3aX1pUKKl-7">
          <mxGeometry relative="1" as="geometry" />
        </mxCell>
        <mxCell id="WUpW_kpJdlC3aX1pUKKl-15" value="Points" style="rhombus;whiteSpace=wrap;html=1;" vertex="1" parent="1">
          <mxGeometry x="49" y="40" width="80" height="80" as="geometry" />
        </mxCell>
      </root>
    </mxGraphModel>
  </diagram>
</mxfile>
